<svg width="830" height="135" viewBox="0 0 830 135" fill="none" xmlns="http://www.w3.org/2000/svg">
<g clip-path="url(#clip0_605_6286)">
<rect width="830" height="135" rx="14" fill="#273016"/>
<rect width="830" height="135" rx="14" fill="#212714" fill-opacity="0.4"/>
<rect width="830" height="135" rx="14" fill="url(#paint0_radial_605_6286)" fill-opacity="0.2"/>
<rect width="830" height="135" rx="14" fill="url(#paint1_radial_605_6286)" fill-opacity="0.2"/>
<path fill-rule="evenodd" clip-rule="evenodd" d="M39.0098 30.8346L28 30.835V25.123H39.0098V30.835H44.754V41.8771H39.0098V36.5471C36.093 36.5979 33.7442 38.9647 33.7442 41.8771H28C28 35.8103 32.9205 30.8862 39.0098 30.835V30.8346Z" fill="#DFFFA0"/>
<path d="M68.7979 25.368V42H65.6059L59.2779 33.124C59.0352 32.788 58.8019 32.452 58.5779 32.116C58.3726 31.7613 58.1859 31.4253 58.0179 31.108H57.8779V42H54.3219V25.368H57.9339L63.8419 33.684C64.0846 34.0013 64.3086 34.3373 64.5139 34.692C64.7379 35.028 64.9339 35.3547 65.1019 35.672H65.2419V25.368H68.7979ZM81.7593 36.708H73.8633C73.9753 37.212 74.1993 37.6507 74.5353 38.024C74.8899 38.3787 75.3379 38.6493 75.8793 38.836C76.4393 39.0227 77.0926 39.116 77.8393 39.116C78.4739 39.116 79.1553 39.032 79.8833 38.864C80.6113 38.6773 81.2086 38.444 81.6753 38.164L81.8153 41.216C81.3299 41.552 80.6766 41.8133 79.8553 42C79.0526 42.168 78.2966 42.252 77.5873 42.252C76.0006 42.252 74.6379 41.9907 73.4993 41.468C72.3793 40.9267 71.5299 40.1707 70.9513 39.2C70.3913 38.2293 70.1113 37.0907 70.1113 35.784C70.1113 34.496 70.3726 33.3853 70.8953 32.452C71.4366 31.5 72.1739 30.7627 73.1073 30.24C74.0593 29.6987 75.1233 29.428 76.2993 29.428C77.3819 29.428 78.3433 29.6427 79.1833 30.072C80.0419 30.5013 80.7046 31.1267 81.1713 31.948C81.6566 32.7507 81.8993 33.7213 81.8993 34.86C81.8993 35.1027 81.8806 35.4013 81.8433 35.756C81.8246 36.092 81.7966 36.4093 81.7593 36.708ZM76.3273 32.004C75.5993 32.004 75.0019 32.2467 74.5353 32.732C74.0873 33.2173 73.8166 33.8613 73.7233 34.664H78.5673C78.5673 34.6267 78.5673 34.5707 78.5673 34.496C78.5673 34.4027 78.5673 34.3373 78.5673 34.3C78.5673 33.6093 78.3619 33.0587 77.9513 32.648C77.5593 32.2187 77.0179 32.004 76.3273 32.004ZM90.8796 29.68L90.6276 32.76H87.3516V37.436C87.3516 38.052 87.501 38.4907 87.7996 38.752C88.0983 38.9947 88.537 39.116 89.1156 39.116C89.433 39.116 89.7316 39.0693 90.0116 38.976C90.3103 38.864 90.5623 38.7333 90.7676 38.584L90.9076 41.608C90.2543 42.0373 89.3676 42.252 88.2476 42.252C86.6983 42.252 85.569 41.8693 84.8596 41.104C84.1503 40.3387 83.7956 39.2467 83.7956 37.828V32.76H82.1156V29.68H83.7956V27.104L87.3516 26.348V29.68H90.8796ZM104.087 29.68L100.447 40.18C99.9246 41.7293 99.2993 43.0173 98.5713 44.044C97.862 45.0707 97.078 45.8547 96.2193 46.396C95.3793 46.9373 94.4926 47.2827 93.5593 47.432L92.0473 44.632C92.9246 44.464 93.662 44.156 94.2593 43.708C94.8753 43.26 95.37 42.6907 95.7433 42L90.8713 29.764L94.6513 29.596L96.7233 34.944C96.966 35.6347 97.1806 36.2787 97.3673 36.876C97.5726 37.4733 97.7126 37.9773 97.7873 38.388H97.9273C98.002 37.9773 98.114 37.4733 98.2633 36.876C98.4126 36.2787 98.59 35.6347 98.7953 34.944L100.475 29.68H104.087ZM117.116 35.7C117.116 36.9507 116.845 38.0707 116.304 39.06C115.781 40.0493 115.053 40.8333 114.12 41.412C113.205 41.972 112.141 42.252 110.928 42.252C109.883 42.252 109.033 42.084 108.38 41.748V47.18H104.796V29.764L108.38 29.596V30.492C108.809 30.1373 109.285 29.876 109.808 29.708C110.331 29.5213 110.928 29.428 111.6 29.428C112.627 29.428 113.551 29.68 114.372 30.184C115.212 30.688 115.875 31.4067 116.36 32.34C116.864 33.2733 117.116 34.3933 117.116 35.7ZM113.42 35.812C113.42 35.14 113.308 34.5613 113.084 34.076C112.86 33.572 112.524 33.1893 112.076 32.928C111.647 32.648 111.105 32.508 110.452 32.508C109.649 32.508 108.959 32.7227 108.38 33.152V38.836C108.623 38.9293 108.903 39.0133 109.22 39.088C109.556 39.144 109.901 39.172 110.256 39.172C110.909 39.172 111.469 39.0413 111.936 38.78C112.403 38.5 112.767 38.108 113.028 37.604C113.289 37.0813 113.42 36.484 113.42 35.812ZM128.759 42H125.371V41.048C124.923 41.4027 124.381 41.692 123.747 41.916C123.112 42.14 122.412 42.252 121.647 42.252C120.284 42.252 119.239 41.9253 118.511 41.272C117.801 40.6187 117.447 39.7133 117.447 38.556C117.447 37.3053 117.885 36.3627 118.763 35.728C119.64 35.0747 120.825 34.748 122.319 34.748C122.86 34.748 123.401 34.7947 123.943 34.888C124.484 34.9813 124.923 35.1027 125.259 35.252V34.58C125.259 33.852 125.025 33.3387 124.559 33.04C124.111 32.7227 123.401 32.564 122.431 32.564C121.74 32.564 121.031 32.648 120.303 32.816C119.593 32.984 119.024 33.1987 118.595 33.46L118.455 30.324C119.033 30.044 119.715 29.8293 120.499 29.68C121.301 29.512 122.123 29.428 122.963 29.428C124.829 29.428 126.257 29.8293 127.247 30.632C128.255 31.416 128.759 32.6573 128.759 34.356V42ZM125.259 39.144V37.38C124.997 37.2493 124.671 37.1467 124.279 37.072C123.905 36.9973 123.541 36.96 123.187 36.96C122.477 36.96 121.936 37.0907 121.563 37.352C121.189 37.5947 121.003 37.9773 121.003 38.5C121.003 38.9853 121.161 39.34 121.479 39.564C121.796 39.7693 122.263 39.872 122.879 39.872C123.308 39.872 123.747 39.8067 124.195 39.676C124.643 39.5267 124.997 39.3493 125.259 39.144ZM138.382 29.568L138.242 33.012C138.13 32.956 137.934 32.9 137.654 32.844C137.392 32.788 137.14 32.76 136.898 32.76C136.394 32.76 135.899 32.8533 135.414 33.04C134.947 33.208 134.518 33.4413 134.126 33.74V42H130.542V29.764L134.126 29.596V31.052C134.667 30.492 135.218 30.0813 135.778 29.82C136.356 29.5587 136.954 29.428 137.57 29.428C137.7 29.428 137.84 29.4373 137.99 29.456C138.158 29.4747 138.288 29.512 138.382 29.568ZM149.774 42H146.386V41.048C145.938 41.4027 145.397 41.692 144.762 41.916C144.127 42.14 143.427 42.252 142.662 42.252C141.299 42.252 140.254 41.9253 139.526 41.272C138.817 40.6187 138.462 39.7133 138.462 38.556C138.462 37.3053 138.901 36.3627 139.778 35.728C140.655 35.0747 141.841 34.748 143.334 34.748C143.875 34.748 144.417 34.7947 144.958 34.888C145.499 34.9813 145.938 35.1027 146.274 35.252V34.58C146.274 33.852 146.041 33.3387 145.574 33.04C145.126 32.7227 144.417 32.564 143.446 32.564C142.755 32.564 142.046 32.648 141.318 32.816C140.609 32.984 140.039 33.1987 139.61 33.46L139.47 30.324C140.049 30.044 140.73 29.8293 141.514 29.68C142.317 29.512 143.138 29.428 143.978 29.428C145.845 29.428 147.273 29.8293 148.262 30.632C149.27 31.416 149.774 32.6573 149.774 34.356V42ZM146.274 39.144V37.38C146.013 37.2493 145.686 37.1467 145.294 37.072C144.921 36.9973 144.557 36.96 144.202 36.96C143.493 36.96 142.951 37.0907 142.578 37.352C142.205 37.5947 142.018 37.9773 142.018 38.5C142.018 38.9853 142.177 39.34 142.494 39.564C142.811 39.7693 143.278 39.872 143.894 39.872C144.323 39.872 144.762 39.8067 145.21 39.676C145.658 39.5267 146.013 39.3493 146.274 39.144ZM170.326 29.68L166.686 42H162.878L161.422 37.66C161.161 36.764 160.946 36.0453 160.778 35.504C160.61 34.944 160.47 34.4307 160.358 33.964H160.218C160.125 34.4307 159.985 34.944 159.798 35.504C159.63 36.0453 159.415 36.764 159.154 37.66L157.698 42H153.89L150.25 29.764L153.862 29.596L155.514 35.476C155.607 35.868 155.701 36.3347 155.794 36.876C155.906 37.3987 155.99 37.884 156.046 38.332H156.186C156.242 37.884 156.335 37.3987 156.466 36.876C156.597 36.3347 156.718 35.868 156.83 35.476L158.454 30.604H162.262L163.886 35.476C163.998 35.868 164.119 36.3347 164.25 36.876C164.381 37.3987 164.474 37.884 164.53 38.332H164.67C164.726 37.884 164.801 37.3987 164.894 36.876C165.006 36.3347 165.109 35.868 165.202 35.476L166.798 29.68H170.326Z" fill="#DFFFA0"/>
<path d="M48.4377 78H43.5601L41.8427 73.0194H34.6637L32.9119 78H28.2748L35.6942 57.5966H41.0183L48.4377 78ZM40.6748 69.4127L39.0261 64.7756C38.8658 64.3176 38.7284 63.894 38.6139 63.5047C38.5223 63.0925 38.4307 62.6803 38.3391 62.2681H38.1673C38.0757 62.6803 37.9727 63.0925 37.8582 63.5047C37.7666 63.894 37.6407 64.3176 37.4804 64.7756L35.7972 69.4127H40.6748ZM64.2568 78H59.8601V68.9662C59.8601 68.0731 59.6426 67.4319 59.2075 67.0426C58.7724 66.6533 58.177 66.4587 57.4214 66.4587C56.9176 66.4587 56.4023 66.5503 55.8756 66.7335C55.349 66.8938 54.8452 67.1228 54.3643 67.4205V78H49.9676V62.9894L54.3643 62.7833V64.1917C55.0971 63.6421 55.8413 63.2413 56.597 62.9894C57.3756 62.7146 58.1885 62.5772 59.0358 62.5772C60.6158 62.5772 61.8753 63.0238 62.8142 63.9169C63.7759 64.787 64.2568 66.161 64.2568 68.0388V78ZM86.6847 78H82.5284V76.8321C81.9788 77.2672 81.3147 77.6222 80.5362 77.897C79.7576 78.1717 78.8989 78.3091 77.96 78.3091C76.2883 78.3091 75.006 77.9084 74.1129 77.1069C73.2427 76.3054 72.8076 75.1948 72.8076 73.7751C72.8076 72.2408 73.3457 71.0844 74.422 70.3058C75.4983 69.5043 76.9524 69.1036 78.7844 69.1036C79.4484 69.1036 80.1125 69.1608 80.7766 69.2753C81.4407 69.3898 81.9788 69.5387 82.391 69.7219V68.8975C82.391 68.0044 82.1048 67.3747 81.5323 67.0083C80.9827 66.619 80.1125 66.4243 78.9218 66.4243C78.0745 66.4243 77.2043 66.5274 76.3112 66.7335C75.441 66.9396 74.7426 67.2029 74.2159 67.5235L74.0442 63.6764C74.7541 63.3329 75.5899 63.0696 76.5517 62.8864C77.5363 62.6803 78.5439 62.5772 79.5744 62.5772C81.8643 62.5772 83.6161 63.0696 84.8298 64.0543C86.0664 65.016 86.6847 66.5388 86.6847 68.6227V78ZM82.391 74.4964V72.3324C82.0704 72.1721 81.6697 72.0462 81.1888 71.9546C80.7308 71.863 80.2843 71.8172 79.8492 71.8172C78.979 71.8172 78.3149 71.9775 77.8569 72.298C77.3989 72.5957 77.1699 73.0652 77.1699 73.7064C77.1699 74.3017 77.3646 74.7368 77.7539 75.0116C78.1432 75.2635 78.7157 75.3895 79.4713 75.3895C79.998 75.3895 80.5362 75.3093 81.0857 75.149C81.6353 74.9658 82.0704 74.7483 82.391 74.4964ZM112.584 62.8864L108.119 78H103.447L101.661 72.6759C101.341 71.5767 101.077 70.6951 100.871 70.031C100.665 69.344 100.493 68.7143 100.356 68.1418H100.184C100.07 68.7143 99.8979 69.344 99.6689 70.031C99.4628 70.6951 99.1995 71.5767 98.8789 72.6759L97.0927 78H92.4212L87.9558 62.9894L92.3869 62.7833L94.4135 69.9967C94.528 70.4775 94.6425 71.05 94.757 71.7141C94.8944 72.3553 94.9974 72.9507 95.0661 73.5003H95.2379C95.3066 72.9507 95.421 72.3553 95.5813 71.7141C95.7416 71.05 95.8905 70.4775 96.0279 69.9967L98.0201 64.0199H102.692L104.684 69.9967C104.821 70.4775 104.97 71.05 105.13 71.7141C105.291 72.3553 105.405 72.9507 105.474 73.5003H105.646C105.714 72.9507 105.806 72.3553 105.92 71.7141C106.058 71.05 106.184 70.4775 106.298 69.9967L108.256 62.8864H112.584ZM137.767 78H133.37V68.9662C133.37 68.8517 133.359 68.7486 133.336 68.657C133.313 68.5654 133.29 68.4738 133.267 68.3822C133.198 67.6953 132.969 67.2029 132.58 66.9052C132.191 66.6075 131.687 66.4587 131.069 66.4587C131.046 66.4587 131.012 66.4701 130.966 66.493C130.92 66.493 130.886 66.493 130.863 66.493C130.428 66.5159 129.97 66.6075 129.489 66.7678C129.031 66.9281 128.584 67.1457 128.149 67.4205C128.172 67.6266 128.183 67.8327 128.183 68.0388C128.206 68.2449 128.218 68.4624 128.218 68.6914V78H123.855V68.9662C123.855 68.8517 123.844 68.7486 123.821 68.657C123.798 68.5654 123.775 68.4738 123.752 68.3822C123.684 67.6953 123.455 67.2029 123.065 66.9052C122.676 66.6075 122.172 66.4587 121.554 66.4587C121.119 66.4587 120.638 66.5503 120.111 66.7335C119.608 66.8938 119.138 67.1228 118.703 67.4205V78H114.306V62.9894L118.703 62.7833V64.1917C119.207 63.8024 119.711 63.4932 120.214 63.2642C120.741 63.0123 121.256 62.852 121.76 62.7833C122.356 62.6459 122.985 62.6116 123.649 62.6803C124.474 62.7261 125.218 62.9207 125.882 63.2642C126.546 63.6077 127.073 64.123 127.462 64.8099C128.264 64.0314 129.088 63.4703 129.935 63.1268C130.805 62.7604 131.687 62.5772 132.58 62.5772C134.114 62.5772 135.362 63.0238 136.324 63.9169C137.286 64.787 137.767 66.161 137.767 68.0388V78ZM153.648 78H149.492V76.8321C148.942 77.2672 148.278 77.6222 147.499 77.897C146.721 78.1717 145.862 78.3091 144.923 78.3091C143.252 78.3091 141.969 77.9084 141.076 77.1069C140.206 76.3054 139.771 75.1948 139.771 73.7751C139.771 72.2408 140.309 71.0844 141.385 70.3058C142.462 69.5043 143.916 69.1036 145.748 69.1036C146.412 69.1036 147.076 69.1608 147.74 69.2753C148.404 69.3898 148.942 69.5387 149.354 69.7219V68.8975C149.354 68.0044 149.068 67.3747 148.496 67.0083C147.946 66.619 147.076 66.4243 145.885 66.4243C145.038 66.4243 144.168 66.5274 143.275 66.7335C142.404 66.9396 141.706 67.2029 141.179 67.5235L141.008 63.6764C141.717 63.3329 142.553 63.0696 143.515 62.8864C144.5 62.6803 145.507 62.5772 146.538 62.5772C148.828 62.5772 150.579 63.0696 151.793 64.0543C153.03 65.016 153.648 66.5388 153.648 68.6227V78ZM149.354 74.4964V72.3324C149.034 72.1721 148.633 72.0462 148.152 71.9546C147.694 71.863 147.248 71.8172 146.813 71.8172C145.942 71.8172 145.278 71.9775 144.82 72.298C144.362 72.5957 144.133 73.0652 144.133 73.7064C144.133 74.3017 144.328 74.7368 144.717 75.0116C145.107 75.2635 145.679 75.3895 146.435 75.3895C146.961 75.3895 147.499 75.3093 148.049 75.149C148.599 74.9658 149.034 74.7483 149.354 74.4964ZM155.735 78V74.2559L163.12 66.6648H156.147V62.8864H168.341V66.6304L160.99 74.2216H168.753V78H155.735ZM173.205 55.9479C173.892 55.9479 174.453 56.1769 174.888 56.6349C175.323 57.0699 175.541 57.6195 175.541 58.2836C175.541 58.9706 175.323 59.5431 174.888 60.0011C174.453 60.4362 173.892 60.6537 173.205 60.6537C172.495 60.6537 171.9 60.4362 171.419 60.0011C170.961 59.5431 170.732 58.9706 170.732 58.2836C170.732 57.6195 170.961 57.0699 171.419 56.6349C171.9 56.1769 172.495 55.9479 173.205 55.9479ZM175.335 62.7833V78H170.938V62.9894L175.335 62.7833ZM192.532 78H188.135V68.9662C188.135 68.0731 187.918 67.4319 187.483 67.0426C187.048 66.6533 186.452 66.4587 185.697 66.4587C185.193 66.4587 184.677 66.5503 184.151 66.7335C183.624 66.8938 183.12 67.1228 182.639 67.4205V78H178.243V62.9894L182.639 62.7833V64.1917C183.372 63.6421 184.116 63.2413 184.872 62.9894C185.651 62.7146 186.464 62.5772 187.311 62.5772C188.891 62.5772 190.15 63.0238 191.089 63.9169C192.051 64.787 192.532 66.161 192.532 68.0388V78ZM209.526 62.3712L209.492 65.7717H207.225C207.454 66.0694 207.625 66.4129 207.74 66.8022C207.877 67.1686 207.946 67.5579 207.946 67.9701C207.946 69.5501 207.396 70.821 206.297 71.7828C205.198 72.7217 203.698 73.2369 201.797 73.3285L200.217 74.8742C200.492 74.8284 200.813 74.7941 201.179 74.7712C201.546 74.7254 201.912 74.7025 202.278 74.7025C202.645 74.6796 202.931 74.6681 203.137 74.6681C205.267 74.6681 206.893 75.0803 208.015 75.9047C209.16 76.7062 209.732 77.8741 209.732 79.4083C209.732 80.9197 209.102 82.1677 207.843 83.1524C206.606 84.1599 204.603 84.6637 201.832 84.6637C200.229 84.6637 198.729 84.5149 197.332 84.2172C195.958 83.9195 194.847 83.5188 194 83.015L194.344 79.2366C194.825 79.5801 195.477 79.8892 196.302 80.164C197.126 80.4388 198.042 80.6563 199.049 80.8166C200.08 80.9998 201.088 81.0914 202.072 81.0914C203.057 81.0914 203.801 81.0227 204.305 80.8853C204.809 80.7708 205.164 80.5876 205.37 80.3357C205.576 80.1067 205.679 79.8205 205.679 79.477C205.679 78.9503 205.416 78.5725 204.889 78.3435C204.385 78.1374 203.435 78.0343 202.038 78.0343C201.191 78.0343 200.286 78.0687 199.324 78.1374C198.362 78.2061 197.538 78.3206 196.851 78.4809V75.4238L199.29 73.1224C197.824 72.8476 196.691 72.2408 195.889 71.3019C195.088 70.363 194.687 69.2524 194.687 67.9701C194.687 66.8709 194.95 65.9206 195.477 65.1191C196.027 64.3176 196.794 63.6993 197.779 63.2642C198.786 62.8062 199.965 62.5772 201.317 62.5772C202.255 62.5772 203.126 62.7032 203.927 62.9551L209.526 62.3712ZM203.927 67.9701C203.927 67.2602 203.687 66.6762 203.206 66.2183C202.748 65.7603 202.118 65.5313 201.317 65.5313C200.492 65.5313 199.839 65.7603 199.359 66.2183C198.901 66.6762 198.672 67.2602 198.672 67.9701C198.672 68.657 198.901 69.2295 199.359 69.6875C199.839 70.1455 200.492 70.3745 201.317 70.3745C202.118 70.3745 202.748 70.157 203.206 69.7219C203.687 69.2639 203.927 68.6799 203.927 67.9701ZM236.657 78H231.78L230.062 73.0194H222.883L221.132 78H216.495L223.914 57.5966H229.238L236.657 78ZM228.895 69.4127L227.246 64.7756C227.085 64.3176 226.948 63.894 226.834 63.5047C226.742 63.0925 226.65 62.6803 226.559 62.2681H226.387C226.295 62.6803 226.192 63.0925 226.078 63.5047C225.986 63.894 225.86 64.3176 225.7 64.7756L224.017 69.4127H228.895ZM254.057 64.6038C254.057 66.1152 253.713 67.3976 253.026 68.4509C252.362 69.5043 251.389 70.2943 250.106 70.821C248.824 71.3477 247.278 71.6111 245.469 71.6111H243.065V78H238.496V57.5966H245.504C247.313 57.5966 248.847 57.8714 250.106 58.421C251.389 58.9706 252.362 59.7606 253.026 60.7911C253.713 61.8216 254.057 63.0925 254.057 64.6038ZM249.488 64.6038C249.488 63.8482 249.316 63.2299 248.973 62.749C248.652 62.2681 248.183 61.9132 247.565 61.6842C246.969 61.4552 246.248 61.3407 245.401 61.3407H243.065V67.867H245.401C246.248 67.867 246.969 67.7525 247.565 67.5235C248.183 67.2945 248.652 66.9396 248.973 66.4587C249.316 65.9778 249.488 65.3595 249.488 64.6038ZM261.104 57.5966V78H256.535V57.5966H261.104ZM53.1092 91.8864L48.6438 107H43.9723L42.1862 101.676C41.8656 100.577 41.6022 99.6951 41.3962 99.031C41.1901 98.344 41.0183 97.7143 40.8809 97.1418H40.7092C40.5947 97.7143 40.4229 98.344 40.1939 99.031C39.9878 99.6951 39.7245 100.577 39.4039 101.676L37.6178 107H32.9463L28.4809 91.9894L32.9119 91.7833L34.9385 98.9967C35.053 99.4775 35.1675 100.05 35.282 100.714C35.4194 101.355 35.5225 101.951 35.5912 102.5H35.7629C35.8316 101.951 35.9461 101.355 36.1064 100.714C36.2667 100.05 36.4155 99.4775 36.5529 98.9967L38.5452 93.0199H43.2167L45.2089 98.9967C45.3463 99.4775 45.4951 100.05 45.6554 100.714C45.8157 101.355 45.9302 101.951 45.9989 102.5H46.1707C46.2394 101.951 46.331 101.355 46.4455 100.714C46.5829 100.05 46.7088 99.4775 46.8233 98.9967L48.7812 91.8864H53.1092ZM64.4492 91.749L64.2775 95.9739C64.1401 95.9052 63.8997 95.8365 63.5562 95.7678C63.2356 95.6991 62.9264 95.6648 62.6287 95.6648C62.0105 95.6648 61.4036 95.7793 60.8082 96.0083C60.2358 96.2144 59.7091 96.5006 59.2282 96.867V107H54.8315V91.9894L59.2282 91.7833V93.5695C59.8923 92.8825 60.5678 92.3787 61.2548 92.0581C61.9647 91.7375 62.6974 91.5772 63.4531 91.5772C63.6134 91.5772 63.7852 91.5887 63.9684 91.6116C64.1744 91.6345 64.3347 91.6803 64.4492 91.749ZM79.1118 107H74.9555V105.832C74.4059 106.267 73.7418 106.622 72.9633 106.897C72.1847 107.172 71.326 107.309 70.3871 107.309C68.7154 107.309 67.4331 106.908 66.54 106.107C65.6698 105.305 65.2347 104.195 65.2347 102.775C65.2347 101.241 65.7728 100.084 66.8491 99.3058C67.9254 98.5043 69.3795 98.1036 71.2115 98.1036C71.8755 98.1036 72.5396 98.1608 73.2037 98.2753C73.8678 98.3898 74.4059 98.5387 74.8181 98.7219V97.8975C74.8181 97.0044 74.5319 96.3747 73.9594 96.0083C73.4098 95.619 72.5396 95.4243 71.3489 95.4243C70.5016 95.4243 69.6314 95.5274 68.7383 95.7335C67.8681 95.9396 67.1697 96.2029 66.643 96.5235L66.4713 92.6764C67.1812 92.3329 68.017 92.0696 68.9788 91.8864C69.9634 91.6803 70.971 91.5772 72.0015 91.5772C74.2914 91.5772 76.0432 92.0696 77.2569 93.0543C78.4935 94.016 79.1118 95.5388 79.1118 97.6227V107ZM74.8181 103.496V101.332C74.4975 101.172 74.0968 101.046 73.6159 100.955C73.1579 100.863 72.7114 100.817 72.2763 100.817C71.4061 100.817 70.742 100.977 70.284 101.298C69.826 101.596 69.597 102.065 69.597 102.706C69.597 103.302 69.7917 103.737 70.181 104.012C70.5703 104.264 71.1428 104.389 71.8984 104.389C72.4251 104.389 72.9633 104.309 73.5128 104.149C74.0624 103.966 74.4975 103.748 74.8181 103.496ZM97.0997 99.2714C97.0997 100.806 96.7676 102.18 96.1036 103.393C95.4624 104.607 94.5693 105.569 93.4243 106.279C92.3023 106.966 90.997 107.309 89.5085 107.309C88.2262 107.309 87.1842 107.103 86.3828 106.691V113.355H81.9861V91.9894L86.3828 91.7833V92.8825C86.9094 92.4474 87.4934 92.1268 88.1346 91.9207C88.7757 91.6917 89.5085 91.5772 90.3329 91.5772C91.5924 91.5772 92.7259 91.8864 93.7335 92.5047C94.7639 93.123 95.5769 94.0046 96.1723 95.1496C96.7905 96.2945 97.0997 97.6685 97.0997 99.2714ZM92.5656 99.4088C92.5656 98.5845 92.4282 97.8746 92.1534 97.2792C91.8786 96.6609 91.4664 96.1915 90.9168 95.8709C90.3902 95.5274 89.7261 95.3556 88.9246 95.3556C87.9399 95.3556 87.0926 95.619 86.3828 96.1457V103.119C86.6805 103.233 87.0239 103.336 87.4132 103.428C87.8254 103.496 88.2491 103.531 88.6842 103.531C89.4856 103.531 90.1726 103.37 90.7451 103.05C91.3176 102.706 91.7641 102.225 92.0847 101.607C92.4053 100.966 92.5656 100.233 92.5656 99.4088ZM114.199 99.2714C114.199 100.806 113.867 102.18 113.203 103.393C112.562 104.607 111.669 105.569 110.524 106.279C109.402 106.966 108.096 107.309 106.608 107.309C105.326 107.309 104.284 107.103 103.482 106.691V113.355H99.0855V91.9894L103.482 91.7833V92.8825C104.009 92.4474 104.593 92.1268 105.234 91.9207C105.875 91.6917 106.608 91.5772 107.432 91.5772C108.692 91.5772 109.825 91.8864 110.833 92.5047C111.863 93.123 112.676 94.0046 113.272 95.1496C113.89 96.2945 114.199 97.6685 114.199 99.2714ZM109.665 99.4088C109.665 98.5845 109.528 97.8746 109.253 97.2792C108.978 96.6609 108.566 96.1915 108.016 95.8709C107.49 95.5274 106.825 95.3556 106.024 95.3556C105.039 95.3556 104.192 95.619 103.482 96.1457V103.119C103.78 103.233 104.123 103.336 104.513 103.428C104.925 103.496 105.348 103.531 105.784 103.531C106.585 103.531 107.272 103.37 107.845 103.05C108.417 102.706 108.864 102.225 109.184 101.607C109.505 100.966 109.665 100.233 109.665 99.4088ZM129.581 100.508H119.895C120.032 101.126 120.307 101.664 120.719 102.122C121.154 102.558 121.704 102.89 122.368 103.119C123.055 103.348 123.856 103.462 124.772 103.462C125.551 103.462 126.387 103.359 127.28 103.153C128.173 102.924 128.906 102.638 129.478 102.294L129.65 106.038C129.054 106.45 128.253 106.771 127.245 107C126.261 107.206 125.333 107.309 124.463 107.309C122.517 107.309 120.845 106.989 119.448 106.347C118.074 105.683 117.032 104.756 116.322 103.565C115.635 102.374 115.292 100.977 115.292 99.3745C115.292 97.7944 115.612 96.4319 116.254 95.287C116.918 94.1191 117.822 93.2146 118.967 92.5734C120.135 91.9093 121.44 91.5772 122.883 91.5772C124.211 91.5772 125.39 91.8406 126.421 92.3673C127.474 92.894 128.287 93.6611 128.86 94.6687C129.455 95.6533 129.753 96.8441 129.753 98.241C129.753 98.5387 129.73 98.9051 129.684 99.3401C129.661 99.7523 129.627 100.142 129.581 100.508ZM122.917 94.7374C122.024 94.7374 121.291 95.0351 120.719 95.6304C120.169 96.2258 119.837 97.0159 119.723 98.0005H125.665C125.665 97.9547 125.665 97.886 125.665 97.7944C125.665 97.6799 125.665 97.5998 125.665 97.554C125.665 96.7067 125.413 96.0312 124.91 95.5274C124.429 95.0007 123.765 94.7374 122.917 94.7374ZM141.594 91.749L141.422 95.9739C141.285 95.9052 141.044 95.8365 140.701 95.7678C140.38 95.6991 140.071 95.6648 139.773 95.6648C139.155 95.6648 138.548 95.7793 137.953 96.0083C137.38 96.2144 136.854 96.5006 136.373 96.867V107H131.976V91.9894L136.373 91.7833V93.5695C137.037 92.8825 137.712 92.3787 138.399 92.0581C139.109 91.7375 139.842 91.5772 140.598 91.5772C140.758 91.5772 140.93 91.5887 141.113 91.6116C141.319 91.6345 141.479 91.6803 141.594 91.749ZM165.647 85.4631L165.475 89.2415C165.315 89.1728 165.098 89.127 164.823 89.1041C164.571 89.0812 164.33 89.0698 164.101 89.0698C163.277 89.0698 162.647 89.253 162.212 89.6193C161.777 89.9857 161.56 90.5926 161.56 91.4399V91.8864H165.304L164.994 95.6648H161.56V107H157.163V95.6648H155.102V91.8864H157.163V91.3712C157.163 89.356 157.747 87.8332 158.915 86.8027C160.083 85.7493 161.651 85.2227 163.62 85.2227C163.941 85.2227 164.296 85.2456 164.685 85.2914C165.075 85.3372 165.395 85.3944 165.647 85.4631ZM182.421 99.4432C182.421 100.955 182.066 102.306 181.356 103.496C180.669 104.687 179.707 105.626 178.471 106.313C177.234 106.977 175.826 107.309 174.246 107.309C172.666 107.309 171.258 106.977 170.021 106.313C168.784 105.626 167.811 104.687 167.101 103.496C166.414 102.306 166.071 100.955 166.071 99.4432C166.071 97.9089 166.414 96.5579 167.101 95.39C167.811 94.1992 168.784 93.2718 170.021 92.6077C171.258 91.9207 172.666 91.5772 174.246 91.5772C175.826 91.5772 177.234 91.9207 178.471 92.6077C179.707 93.2718 180.669 94.1992 181.356 95.39C182.066 96.5579 182.421 97.9089 182.421 99.4432ZM177.887 99.4432C177.887 98.6417 177.727 97.9433 177.406 97.3479C177.085 96.7296 176.65 96.2602 176.101 95.9396C175.551 95.5961 174.933 95.4243 174.246 95.4243C173.559 95.4243 172.941 95.5961 172.391 95.9396C171.841 96.2602 171.406 96.7296 171.086 97.3479C170.765 97.9433 170.605 98.6417 170.605 99.4432C170.605 100.245 170.765 100.955 171.086 101.573C171.406 102.168 171.841 102.638 172.391 102.981C172.964 103.302 173.582 103.462 174.246 103.462C174.956 103.462 175.586 103.302 176.135 102.981C176.685 102.638 177.108 102.168 177.406 101.573C177.727 100.955 177.887 100.245 177.887 99.4432ZM194.017 91.749L193.845 95.9739C193.707 95.9052 193.467 95.8365 193.123 95.7678C192.803 95.6991 192.494 95.6648 192.196 95.6648C191.578 95.6648 190.971 95.7793 190.376 96.0083C189.803 96.2144 189.276 96.5006 188.795 96.867V107H184.399V91.9894L188.795 91.7833V93.5695C189.46 92.8825 190.135 92.3787 190.822 92.0581C191.532 91.7375 192.265 91.5772 193.02 91.5772C193.181 91.5772 193.352 91.5887 193.536 91.6116C193.742 91.6345 193.902 91.6803 194.017 91.749Z" fill="white"/>
<path d="M220.296 86.5966V107H216.38L208.617 96.1113C208.319 95.6991 208.033 95.287 207.758 94.8748C207.506 94.4397 207.277 94.0275 207.071 93.6382H206.9V107H202.537V86.5966H206.968L214.216 96.7983C214.514 97.1876 214.788 97.5998 215.04 98.0349C215.315 98.4471 215.556 98.8478 215.762 99.2371H215.933V86.5966H220.296ZM236.883 100.508H227.197C227.334 101.126 227.609 101.664 228.021 102.122C228.456 102.558 229.006 102.89 229.67 103.119C230.357 103.348 231.158 103.462 232.074 103.462C232.853 103.462 233.689 103.359 234.582 103.153C235.475 102.924 236.208 102.638 236.78 102.294L236.952 106.038C236.356 106.45 235.555 106.771 234.547 107C233.563 107.206 232.635 107.309 231.765 107.309C229.819 107.309 228.147 106.989 226.75 106.347C225.376 105.683 224.334 104.756 223.624 103.565C222.937 102.374 222.594 100.977 222.594 99.3745C222.594 97.7944 222.914 96.4319 223.556 95.287C224.22 94.1191 225.124 93.2146 226.269 92.5734C227.437 91.9093 228.742 91.5772 230.185 91.5772C231.513 91.5772 232.693 91.8406 233.723 92.3673C234.776 92.894 235.589 93.6611 236.162 94.6687C236.757 95.6533 237.055 96.8441 237.055 98.241C237.055 98.5387 237.032 98.9051 236.986 99.3401C236.963 99.7523 236.929 100.142 236.883 100.508ZM230.219 94.7374C229.326 94.7374 228.594 95.0351 228.021 95.6304C227.471 96.2258 227.139 97.0159 227.025 98.0005H232.967C232.967 97.9547 232.967 97.886 232.967 97.7944C232.967 97.6799 232.967 97.5998 232.967 97.554C232.967 96.7067 232.715 96.0312 232.212 95.5274C231.731 95.0007 231.067 94.7374 230.219 94.7374ZM248.759 91.8864L248.449 95.6648H244.431V101.401C244.431 102.157 244.614 102.695 244.98 103.016C245.347 103.313 245.885 103.462 246.595 103.462C246.984 103.462 247.35 103.405 247.694 103.29C248.06 103.153 248.369 102.993 248.621 102.809L248.793 106.519C247.991 107.046 246.904 107.309 245.53 107.309C243.629 107.309 242.244 106.84 241.373 105.901C240.503 104.962 240.068 103.622 240.068 101.882V95.6648H238.007V91.8864H240.068V88.7263L244.431 87.7988V91.8864H248.759ZM267.665 86.5966L260.349 99.7867V107H255.815V99.7867L248.499 86.5966H253.548L258.185 95.5617L262.822 86.5966H267.665ZM285.153 93.6038C285.153 95.1152 284.81 96.3976 284.123 97.4509C283.459 98.5043 282.486 99.2943 281.203 99.821C279.921 100.348 278.375 100.611 276.566 100.611H274.162V107H269.593V86.5966H276.6C278.409 86.5966 279.944 86.8714 281.203 87.421C282.486 87.9706 283.459 88.7606 284.123 89.7911C284.81 90.8216 285.153 92.0925 285.153 93.6038ZM280.585 93.6038C280.585 92.8482 280.413 92.2299 280.07 91.749C279.749 91.2681 279.28 90.9132 278.661 90.6842C278.066 90.4552 277.345 90.3407 276.497 90.3407H274.162V96.867H276.497C277.345 96.867 278.066 96.7525 278.661 96.5235C279.28 96.2945 279.749 95.9396 280.07 95.4587C280.413 94.9778 280.585 94.3595 280.585 93.6038ZM300.072 107H295.916V105.832C295.366 106.267 294.702 106.622 293.923 106.897C293.145 107.172 292.286 107.309 291.347 107.309C289.675 107.309 288.393 106.908 287.5 106.107C286.63 105.305 286.195 104.195 286.195 102.775C286.195 101.241 286.733 100.084 287.809 99.3058C288.885 98.5043 290.34 98.1036 292.172 98.1036C292.836 98.1036 293.5 98.1608 294.164 98.2753C294.828 98.3898 295.366 98.5387 295.778 98.7219V97.8975C295.778 97.0044 295.492 96.3747 294.919 96.0083C294.37 95.619 293.5 95.4243 292.309 95.4243C291.462 95.4243 290.591 95.5274 289.698 95.7335C288.828 95.9396 288.13 96.2029 287.603 96.5235L287.431 92.6764C288.141 92.3329 288.977 92.0696 289.939 91.8864C290.924 91.6803 291.931 91.5772 292.962 91.5772C295.251 91.5772 297.003 92.0696 298.217 93.0543C299.454 94.016 300.072 95.5388 300.072 97.6227V107ZM295.778 103.496V101.332C295.458 101.172 295.057 101.046 294.576 100.955C294.118 100.863 293.671 100.817 293.236 100.817C292.366 100.817 291.702 100.977 291.244 101.298C290.786 101.596 290.557 102.065 290.557 102.706C290.557 103.302 290.752 103.737 291.141 104.012C291.53 104.264 292.103 104.389 292.859 104.389C293.385 104.389 293.923 104.309 294.473 104.149C295.023 103.966 295.458 103.748 295.778 103.496ZM312.564 91.749L312.392 95.9739C312.255 95.9052 312.014 95.8365 311.671 95.7678C311.35 95.6991 311.041 95.6648 310.743 95.6648C310.125 95.6648 309.518 95.7793 308.923 96.0083C308.35 96.2144 307.824 96.5006 307.343 96.867V107H302.946V91.9894L307.343 91.7833V93.5695C308.007 92.8825 308.682 92.3787 309.369 92.0581C310.079 91.7375 310.812 91.5772 311.568 91.5772C311.728 91.5772 311.9 91.5887 312.083 91.6116C312.289 91.6345 312.449 91.6803 312.564 91.749ZM327.538 100.508H317.852C317.989 101.126 318.264 101.664 318.676 102.122C319.111 102.558 319.661 102.89 320.325 103.119C321.012 103.348 321.813 103.462 322.729 103.462C323.508 103.462 324.344 103.359 325.237 103.153C326.13 102.924 326.862 102.638 327.435 102.294L327.607 106.038C327.011 106.45 326.21 106.771 325.202 107C324.218 107.206 323.29 107.309 322.42 107.309C320.474 107.309 318.802 106.989 317.405 106.347C316.031 105.683 314.989 104.756 314.279 103.565C313.592 102.374 313.249 100.977 313.249 99.3745C313.249 97.7944 313.569 96.4319 314.211 95.287C314.875 94.1191 315.779 93.2146 316.924 92.5734C318.092 91.9093 319.397 91.5772 320.84 91.5772C322.168 91.5772 323.347 91.8406 324.378 92.3673C325.431 92.894 326.244 93.6611 326.817 94.6687C327.412 95.6533 327.71 96.8441 327.71 98.241C327.71 98.5387 327.687 98.9051 327.641 99.3401C327.618 99.7523 327.584 100.142 327.538 100.508ZM320.874 94.7374C319.981 94.7374 319.248 95.0351 318.676 95.6304C318.126 96.2258 317.794 97.0159 317.68 98.0005H323.622C323.622 97.9547 323.622 97.886 323.622 97.7944C323.622 97.6799 323.622 97.5998 323.622 97.554C323.622 96.7067 323.37 96.0312 322.866 95.5274C322.386 95.0007 321.722 94.7374 320.874 94.7374ZM345.39 99.4432C345.39 100.955 345.035 102.306 344.325 103.496C343.638 104.687 342.677 105.626 341.44 106.313C340.203 106.977 338.795 107.309 337.215 107.309C335.635 107.309 334.227 106.977 332.99 106.313C331.754 105.626 330.78 104.687 330.07 103.496C329.383 102.306 329.04 100.955 329.04 99.4432C329.04 97.9089 329.383 96.5579 330.07 95.39C330.78 94.1992 331.754 93.2718 332.99 92.6077C334.227 91.9207 335.635 91.5772 337.215 91.5772C338.795 91.5772 340.203 91.9207 341.44 92.6077C342.677 93.2718 343.638 94.1992 344.325 95.39C345.035 96.5579 345.39 97.9089 345.39 99.4432ZM340.856 99.4432C340.856 98.6417 340.696 97.9433 340.375 97.3479C340.055 96.7296 339.619 96.2602 339.07 95.9396C338.52 95.5961 337.902 95.4243 337.215 95.4243C336.528 95.4243 335.91 95.5961 335.36 95.9396C334.811 96.2602 334.375 96.7296 334.055 97.3479C333.734 97.9433 333.574 98.6417 333.574 99.4432C333.574 100.245 333.734 100.955 334.055 101.573C334.375 102.168 334.811 102.638 335.36 102.981C335.933 103.302 336.551 103.462 337.215 103.462C337.925 103.462 338.555 103.302 339.104 102.981C339.654 102.638 340.077 102.168 340.375 101.573C340.696 100.955 340.856 100.245 340.856 99.4432Z" fill="#DFFFA0"/>
<g style="mix-blend-mode:overlay">
<path fill-rule="evenodd" clip-rule="evenodd" d="M477.798 -3.92365L379 -3.92364V-55L477.798 -55L477.798 -3.92365L529.11 -3.92364V94.7405L477.798 95.3454L477.798 47.5157C451.624 47.9714 430.547 69.211 430.547 95.3454H379C379 40.9038 423.155 -3.46485 477.798 -3.92365Z" fill="#DFFFA0"/>
<path fill-rule="evenodd" clip-rule="evenodd" d="M580.892 94.9329L679.69 94.9293V146.187H580.892V94.9293L529.11 94.7407V-3.92344L580.892 -3.92344V43.6713C607.066 43.2156 628.127 22.211 628.127 -3.92344H679.221C679.221 50.5181 635.536 94.4705 580.892 94.9293V94.9329Z" fill="#92D806" fill-opacity="0.5"/>
<path fill-rule="evenodd" clip-rule="evenodd" d="M778.489 47.0959L679.221 47.0959V-3.92334L778.489 -3.92334V47.0995L830.036 47.0995V146.187H778.489V98.3574C752.315 98.8132 731.238 120.053 731.238 146.187H679.691C679.691 91.7456 723.845 47.5583 778.489 47.0995V47.0959Z" fill="#DFFFA0" fill-opacity="0.7"/>
</g>
</g>
<rect x="0.5" y="0.5" width="829" height="134" rx="13.5" stroke="url(#paint2_linear_605_6286)" style="mix-blend-mode:overlay"/>
<rect x="0.5" y="0.5" width="829" height="134" rx="13.5" stroke="url(#paint3_linear_605_6286)" stroke-opacity="0.1"/>
<rect x="0.5" y="0.5" width="829" height="134" rx="13.5" stroke="white" stroke-opacity="0.1"/>
<defs>
<radialGradient id="paint0_radial_605_6286" cx="0" cy="0" r="1" gradientUnits="userSpaceOnUse" gradientTransform="translate(9.4458e-07 165.586) rotate(17.7974) scale(413.385 308.037)">
<stop offset="0.100613" stop-color="#DFFFA0" stop-opacity="0"/>
<stop offset="0.515" stop-color="#AAFF00"/>
<stop offset="1" stop-color="#AAFF00" stop-opacity="0.35"/>
</radialGradient>
<radialGradient id="paint1_radial_605_6286" cx="0" cy="0" r="1" gradientUnits="userSpaceOnUse" gradientTransform="translate(1075 -132) rotate(110.154) scale(458.578 1768.11)">
<stop stop-color="#84B12B" stop-opacity="0"/>
<stop offset="0.285" stop-color="#84B12B"/>
<stop offset="1" stop-color="#84B12B" stop-opacity="0.184314"/>
</radialGradient>
<linearGradient id="paint2_linear_605_6286" x1="415" y1="0" x2="415" y2="135" gradientUnits="userSpaceOnUse">
<stop stop-color="white" stop-opacity="0.6"/>
<stop offset="0.5" stop-color="white" stop-opacity="0"/>
<stop offset="1" stop-color="white"/>
</linearGradient>
<linearGradient id="paint3_linear_605_6286" x1="415" y1="0" x2="415" y2="135" gradientUnits="userSpaceOnUse">
<stop stop-color="white" stop-opacity="0.6"/>
<stop offset="0.5" stop-color="white" stop-opacity="0"/>
<stop offset="1" stop-color="white"/>
</linearGradient>
<clipPath id="clip0_605_6286">
<rect width="830" height="135" rx="14" fill="white"/>
</clipPath>
</defs>
</svg>
